<?xml version="1.0" encoding="UTF-8" standalone="no"?>
<!DOCTYPE svg PUBLIC "-//W3C//DTD SVG 1.1//EN" "http://www.w3.org/Graphics/SVG/1.1/DTD/svg11.dtd">
<svg width="100%" height="100%" viewBox="0 0 1634 1583" version="1.1" xmlns="http://www.w3.org/2000/svg" xmlns:xlink="http://www.w3.org/1999/xlink" xml:space="preserve" xmlns:serif="http://www.serif.com/" style="fill-rule:evenodd;clip-rule:evenodd;stroke-linejoin:round;stroke-miterlimit:2;">
    <style>
      path {
        transform-box: fill-box;
        transform-origin: center;
        animation: piece-assemble 2s infinite alternate ease-in-out;
      }
      #A1 { animation-delay: 0.1s; }
      #A2 { animation-delay: 0.2s; }
      #A3 { animation-delay: 0.3s; }
      #A4 { animation-delay: 0.4s; }
      #A6 { animation-delay: 0.5s; }
      #A7 { animation-delay: 0.6s; }
      #A8 { animation-delay: 0.7s; }
      #A9 { animation-delay: 0.8s; }
      #A10 { animation-delay: 0.9s; }
      #A11 { animation-delay: 1.0s; }
      #A12 { animation-delay: 1.1s; }
      @keyframes piece-assemble {
        0%, 10% { transform: scale(0) translate(-50px, 50px) rotate(-45deg); opacity: 0; }
        90%, 100% { transform: scale(1) translate(0, 0) rotate(0deg); opacity: 1; }
      }
    </style>
    <g transform="matrix(1,0,0,1,-347.849848,-186.648761)">
        <g transform="matrix(2.236328,0,0,2.236328,0,0)">
            <path id="A2" d="M883.953,287.304C871.427,225.081 786.672,145.468 630.636,190.969C556.644,212.545 488.791,265.354 477.814,273.897C400.683,333.926 358.666,392.598 392.93,480.347C394.552,484.501 397.73,487.774 393.649,486.161C392.472,485.696 380.983,475.929 379.904,475.012C326.048,429.226 302.704,385.653 289.269,350.58C288.277,347.992 290.343,343.736 320.044,309.109C424.507,187.323 677.202,-4.44 836.222,164.757C882.797,214.313 884.676,273.174 885.676,284.516C885.699,284.777 886.593,294.931 883.953,287.304Z" style="fill:rgb(12,124,185);"/>
        </g>
        <g transform="matrix(2.236328,0,0,2.236328,0,0)">
            <path id="A7" d="M656.359,398.546C651.626,388.736 656.819,394.425 659.733,396.217C690.824,422.041 732.357,464.676 753.211,526.584C754.106,529.241 747.754,536.833 733.959,553.868C683.804,615.8 646.715,644.293 627.188,661.127C618.515,668.605 552.232,721.173 486.335,749.102C479.801,751.871 324.78,829.765 209.867,717.12C192.692,700.284 180.345,678.319 178.27,674.626C161.18,644.224 156.441,606.629 155.562,595.087C155.465,593.815 155.821,593.107 155.946,593.411C156.79,595.471 159.479,607.373 160.625,607.449C167.814,624.602 197.947,705.086 342.487,699.224C480.278,693.636 625.452,570.068 653.041,508.288C674.247,460.8 664.225,424.094 656.359,398.546Z" style="fill:rgb(13,124,184);"/>
        </g>
        <g transform="matrix(2.236328,0,0,2.236328,0,0)">
            <path id="A1" d="M588.029,495.162C587.946,495.96 587.863,496.758 587.781,497.557C583.568,552.135 535.523,564.911 512.497,565.066C497.714,565.165 328.83,566.301 327.706,564.41C327.181,563.528 327.78,563.525 331.015,559.139C364.339,513.975 363.777,513.641 366.864,509.868C368.45,507.929 490.132,509.396 511.495,509.002C532.989,508.606 536.805,493.647 535.133,484.56C531.574,465.211 512.379,468.586 476.5,468.535C399.782,468.428 389.95,409.764 399.778,377.581C418.765,315.412 472.08,321.152 483.5,321.148C558.837,321.123 565.787,318.792 561.951,323.764C555.443,332.198 524.923,374.443 524.196,375.215C522.137,377.399 490.393,375.941 468.497,376.372C447.03,376.795 444.252,401.371 457.682,409.212C473.209,418.277 531.442,400.658 565.268,430.761C591.443,454.054 586.92,476.595 587.892,479.324C590.672,487.133 589.736,471.238 589.694,470.52C588.341,447.563 589.609,378.921 589.056,377.602C587.981,375.037 554.466,376.754 544.523,376.425C544.262,376.416 542.791,376.215 545.001,373.195C548.013,369.08 582.1,322.503 582.805,321.874C583.493,321.26 583.582,321.105 675.5,321.149C766.731,321.194 768.11,320.743 767.961,322.545C767.927,322.954 729.551,375.384 729.464,375.462C726.956,377.698 644.559,375.236 642.849,376.817C641.701,377.878 642.633,482.491 642.333,499.5C642.257,503.785 636.384,508.449 633.997,510.983C590.486,557.169 590.569,557.653 589.499,557.502C588.239,557.324 589.737,504.084 589.868,499.441C589.879,499.068 590.085,474.714 588.029,495.162Z" style="fill:rgb(122,127,128);"/>
        </g>
        <g transform="matrix(2.236328,0,0,2.236328,0,0)">
            <path id="A4" d="M168.969,327.411C164.856,306.695 154.839,246.883 187.946,186.738C241.797,88.91 332.506,85.572 344.522,83.924C358.667,81.985 342.899,86.775 342.63,86.849C315.053,94.458 258.465,130.445 244.266,213.461C220.007,355.295 347.065,473.663 364.296,491.664C367.478,494.988 360.608,492.11 358.195,495.264C352.269,503.011 340.688,519.296 340.036,520.155C327.752,536.358 312.946,558.339 311.498,558.49C309.416,558.709 295.233,542.583 293.926,541.098C247.025,487.776 190.896,424.924 168.969,327.411Z" style="fill:rgb(123,127,129);"/>
        </g>
        <g transform="matrix(2.236328,0,0,2.236328,0,0)">
            <path id="A9" d="M691.122,790.967C691.496,790.655 691.417,789.981 691.79,789.669C693.154,788.53 703.863,788.148 724.368,776.283C754.594,758.792 778.118,727.42 789.168,694.387C841.308,538.519 691.608,395.618 691.429,393.512C691.326,392.3 697.004,392.357 697.498,392.362C735.718,392.751 736.358,392.987 738.26,390.334C739.436,388.694 752.399,370.612 752.966,369.85C765.051,353.624 765.843,351.206 768.098,353.852C964.857,584.651 856.944,737.339 749.606,778.759C728.014,787.091 695.774,791.203 691.122,790.967Z" style="fill:rgb(122,126,128);"/>
        </g>
        <g transform="matrix(2.236328,0,0,2.236328,0,0)">
            <path id="A3" d="M243.938,244.097C242.302,222.993 257.755,103.632 363.571,83.98C379.752,80.975 453.096,91.96 505.259,118.888C509.33,120.989 503.989,121.374 457.263,150.114C441.102,160.054 420.268,177.767 417.579,177.092C402.954,173.421 324.804,142.786 266.796,206.774C251.74,223.382 246.285,241.028 245.262,244.337C244.821,244.257 244.379,244.177 243.938,244.097Z" style="fill:rgb(123,127,129);"/>
        </g>
        <g transform="matrix(2.236328,0,0,2.236328,0,0)">
            <path id="A8" d="M637.557,788.092C623.494,785.583 601.492,782.608 568.435,770.665C537.197,759.38 534.977,757.684 537.393,756.406C551.293,749.057 551.097,748.915 564.784,741C609.223,715.301 622.282,699.246 627.424,700.75C746.182,735.49 789.579,653.525 795.072,638.218C800.191,623.955 794.95,657.85 794.69,659.536C793.08,669.949 782.667,737.298 726.216,772.052C685.034,797.406 654.846,790.059 637.557,788.092Z" style="fill:rgb(122,126,128);"/>
        </g>
        <g transform="matrix(2.236328,0,0,2.236328,0,0)">
            <path id="A6" d="M160.881,535.561C164.582,516.296 165.826,509.765 173.779,485.599C176.419,477.575 186.101,453.407 187.747,450.743C189.073,448.596 190.869,454.213 205.099,475.769C230.441,514.154 239.401,521.375 245.226,529.662C247.579,533.009 223.87,589.233 254.799,646.332C270.469,675.26 298.16,691.537 308.669,695.35C318.436,698.894 241.018,694.044 200.465,658.542C149.178,613.645 154.974,571.407 160.881,535.561Z" style="fill:rgb(14,123,183);"/>
        </g>
        <g transform="matrix(2.236328,0,0,2.236328,0,0)">
            <path id="A10" d="M737.133,181.03C764.413,182.532 836.373,198.177 868.001,254.784C889.005,292.376 888.725,315.274 875.432,370.482C871.566,386.54 856.827,425.325 855.537,425.581C851.956,426.292 854.861,422.366 824.928,380.189C806.424,354.115 796.526,346.469 797.461,342.491C798.377,338.593 829.738,241.758 743.177,185.982C740.671,184.367 733.588,181.538 734.781,180.477C735.383,179.942 736.531,181.565 737.133,181.03Z" style="fill:rgb(13,124,184);"/>
        </g>
        <g transform="matrix(2.236328,0,0,2.236328,0,0)">
            <path id="A11" d="M617.655,219.963C620.5,219.475 623.529,220.386 657.872,249.043C660.791,251.479 677.102,265.089 693.57,280.424C717.862,303.044 719.464,304.492 718.421,305.377C718.228,305.542 620.054,305.415 611.501,305.404C595.117,305.383 594.324,306.704 587.192,300.87C539.779,262.087 533.498,262.766 537.619,259.666C563.14,240.47 610.966,222.48 617.655,219.963Z" style="fill:rgb(122,126,128);"/>
        </g>
        <g transform="matrix(2.236328,0,0,2.236328,0,0)">
            <path id="A12" d="M405.659,644.307C368.169,613.802 334.498,582.767 334.87,581.591C335.046,581.033 335.379,580.864 430.498,580.909C459.364,580.922 459.972,580.163 464.842,584.094C505.436,616.862 511.213,616.125 507.551,618.547C462.585,648.287 427.644,657.685 426.387,658.073C422.581,659.245 419.249,654.809 405.659,644.307Z" style="fill:rgb(122,126,128);"/>
        </g>
    </g>
</svg>
